<?xml version="1.0" encoding="UTF-8" standalone="no"?>
<svg width="40px" height="62px" viewBox="0 0 40 62" version="1.1" xmlns="http://www.w3.org/2000/svg" xmlns:xlink="http://www.w3.org/1999/xlink">
    <!-- Generator: sketchtool 3.6.1 (26313) - http://www.bohemiancoding.com/sketch -->
    <title>Kimpee</title>
    <desc>Created with sketchtool.</desc>
    <defs>
        <path id="path-1" d="M20,43.4988627 C31.045695,43.4988627 40,31.5341867 40,20.4144742 C40,9.29476163 31.045695,0.280453554 20,0.280453554 C8.954305,0.280453554 0,9.29476163 0,20.4144742 C0,31.5341867 8.954305,43.4988627 20,43.4988627 Z"></path>
    </defs>
    <g id="Page-1" stroke="none" stroke-width="1" fill="none" fill-rule="evenodd">
        <g id="Homepage" transform="translate(-1119.000000, -601.000000)">
            <g id="Kimpee" transform="translate(1119.000000, 601.000000)">
                <g id="Group" transform="translate(17.777778, 0.000000)">
                    <path d="M0,2.35258391 C0,2.35258391 2.28229887,0 3.42344829,0 C4.18706077,0 7.75083875,3.43893608 7.75083875,3.43893608 L5.71428571,24.7237179 L0,24.7237179 L0,2.35258391 Z" id="Rectangle-1" fill="#6DA730"></path>
                    <path d="M6.40669071,5.42219953 C6.40669071,5.42219953 8.68898958,3.06961562 9.830139,3.06961562 C10.5937515,3.06961562 14.1575295,6.5085517 14.1575295,6.5085517 L12.1209764,27.7933336 L6.40669071,27.7933336 L6.40669071,5.42219953 Z" id="Rectangle-1-Copy-2" fill="#6DA730" transform="translate(10.282110, 15.431475) rotate(-330.000000) translate(-10.282110, -15.431475) "></path>
                    <path d="M16.0538654,15.8901799 C16.0538654,15.8901799 18.5633107,15.8959267 19.1702132,16.5243927 C19.5763287,16.9449376 19.5777409,20.7365641 19.5777409,20.7365641 L6.77244924,30.934952 L3.73339527,27.7879195 L16.0538654,15.8901799 Z" id="Rectangle-1-Copy-4" fill="#6DA730"></path>
                    <path d="M1.9047619,4.67656771 C1.9047619,4.67656771 3.58738081,2.55670103 4.42869026,2.55670103 C4.99166157,2.55670103 7.61904762,5.65545808 7.61904762,5.65545808 L6.11760419,24.8347526 L1.9047619,24.8347526 L1.9047619,4.67656771 Z" id="Rectangle-1-Copy" fill="#4F8C11"></path>
                    <path d="M6.98412698,10.429145 C6.98412698,10.429145 8.66674589,8.30927835 9.50805533,8.30927835 C10.0710267,8.30927835 12.6984127,11.4080354 12.6984127,11.4080354 L11.1969693,30.5873299 L6.98412698,30.5873299 L6.98412698,10.429145 Z" id="Rectangle-1-Copy-3" fill="#4F8C11" transform="translate(9.841270, 19.448304) rotate(-330.000000) translate(-9.841270, -19.448304) "></path>
                    <path d="M15.3960914,19.6892125 C15.3960914,19.6892125 17.4584417,19.4884643 17.9058791,19.9517992 C18.2052866,20.2618448 17.8960404,23.3568527 17.8960404,23.3568527 L6.53489494,32.7301712 L4.2943603,30.4100296 L15.3960914,19.6892125 Z" id="Rectangle-1-Copy-5" fill="#4F8C11"></path>
                </g>
                <g id="Group-Copy" transform="translate(10.317460, 16.500000) scale(-1, 1) translate(-10.317460, -16.500000) translate(0.317460, 0.000000)">
                    <path d="M6.75015599e-14,2.35258391 C6.75015599e-14,2.35258391 2.28229887,0 3.42344829,0 C4.18706077,0 7.75083875,3.43893608 7.75083875,3.43893608 L5.71428571,24.7237179 L6.75015599e-14,24.7237179 L6.75015599e-14,2.35258391 Z" id="Rectangle-1" fill="#6DA730"></path>
                    <path d="M6.40669071,5.42219953 C6.40669071,5.42219953 8.68898958,3.06961562 9.830139,3.06961562 C10.5937515,3.06961562 14.1575295,6.5085517 14.1575295,6.5085517 L12.1209764,27.7933336 L6.40669071,27.7933336 L6.40669071,5.42219953 Z" id="Rectangle-1-Copy-2" fill="#6DA730" transform="translate(10.282110, 15.431475) rotate(-330.000000) translate(-10.282110, -15.431475) "></path>
                    <path d="M14.8299415,17.5697509 C14.8299415,17.5697509 17.0891765,17.5749247 17.6355663,18.140728 C18.001189,18.5193414 18.0024605,21.9329147 18.0024605,21.9329147 L6.47395147,31.1144476 L3.73791374,28.2811976 L14.8299415,17.5697509 Z" id="Rectangle-1-Copy-4" fill="#6DA730"></path>
                    <path d="M1.9047619,4.67656771 C1.9047619,4.67656771 3.58738081,2.55670103 4.42869026,2.55670103 C4.99166157,2.55670103 7.61904762,5.65545808 7.61904762,5.65545808 L6.11760419,24.8347526 L1.9047619,24.8347526 L1.9047619,4.67656771 Z" id="Rectangle-1-Copy" fill="#4F8C11"></path>
                    <path d="M6.98412698,10.429145 C6.98412698,10.429145 8.66674589,8.30927835 9.50805533,8.30927835 C10.0710267,8.30927835 12.6984127,11.4080354 12.6984127,11.4080354 L11.1969693,30.5873299 L6.98412698,30.5873299 L6.98412698,10.429145 Z" id="Rectangle-1-Copy-3" fill="#4F8C11" transform="translate(9.841270, 19.448304) rotate(-330.000000) translate(-9.841270, -19.448304) "></path>
                    <path d="M14.2377525,20.9899918 C14.2377525,20.9899918 16.0944712,20.8092596 16.4972957,21.2263966 C16.7668501,21.5055284 16.488438,24.291941 16.488438,24.291941 L6.2600831,32.73067 L4.2429464,30.6418638 L14.2377525,20.9899918 Z" id="Rectangle-1-Copy-5" fill="#4F8C11"></path>
                </g>
                <path d="M20,61.3957699 C31.045695,61.3957699 40,49.4310939 40,38.3113814 C40,27.1916688 31.045695,18.1773608 20,18.1773608 C8.954305,18.1773608 0,27.1916688 0,38.3113814 C0,49.4310939 8.954305,61.3957699 20,61.3957699 Z" id="Oval-1" fill="#E7CC35" transform="translate(20.000000, 39.786565) rotate(-180.000000) translate(-20.000000, -39.786565) "></path>
                <g id="Group-4" transform="translate(0.000000, 17.896907)">
                    <mask id="mask-2" fill="white">
                        <use xlink:href="#path-1"></use>
                    </mask>
                    <use id="Oval-1" fill="#E7CC35" opacity="0.16954291" transform="translate(20.000000, 21.889658) rotate(-180.000000) translate(-20.000000, -21.889658) " xlink:href="#path-1"></use>
                    <g id="Group-3" mask="url(#mask-2)" stroke-linecap="square" stroke="#E0BC1C" stroke-width="2">
                        <g transform="translate(2.539683, -0.639175)">
                            <path d="M6.98412698,0 L35.5555556,20.4536082" id="Line"></path>
                            <path d="M2.53968254,10.2268041 L31.1111111,30.6804124" id="Line-Copy"></path>
                            <path d="M0,22.371134 L28.5714286,42.8247423" id="Line-Copy-2"></path>
                        </g>
                    </g>
                    <g id="Group-3" mask="url(#mask-2)" stroke-linecap="square" stroke="#E0BC1C" stroke-width="2">
                        <g transform="translate(20.095238, 20.860825) scale(-1, 1) translate(-20.095238, -20.860825) translate(2.095238, -0.639175)">
                            <path d="M6.98412698,0 L35.5555556,20.4536082" id="Line"></path>
                            <path d="M2.53968254,10.2268041 L31.1111111,30.6804124" id="Line-Copy"></path>
                            <path d="M0,22.371134 L28.5714286,42.8247423" id="Line-Copy-2"></path>
                        </g>
                    </g>
                </g>
                <g id="Group-2" transform="translate(8.253968, 45.381443)">
                    <ellipse id="Oval-2" fill="#494848" cx="3.17460317" cy="3.19587629" rx="3.17460317" ry="3.19587629"></ellipse>
                    <ellipse id="Oval-2-Copy" fill="#494848" cx="20.3174603" cy="3.19587629" rx="3.17460317" ry="3.19587629"></ellipse>
                    <path d="M9.84126984,9.26804124 C9.84126984,9.26804124 11.1176873,10.0111079 11.7460317,10.0111079 C12.3875286,10.0111079 13.6507937,9.26804124 13.6507937,9.26804124" id="Line" stroke="#494848" stroke-linecap="square"></path>
                </g>
            </g>
        </g>
    </g>
</svg>